<svg version="1" xmlns="http://www.w3.org/2000/svg" width="853.333" height="853.333" viewBox="0 0 640.000000 640.000000"><path d="M0 320v320h640V0H0v320zm372.9-164.1c5.8 3.9 9.2 6.9 9.9 8.8 6 15.7 7.5 44.7 3.2 61.8-1.2 4.9-2.6 9.4-3.1 10-.5.5-.9 1.5-.9 2.1 0 1.8-6.1 14.8-7.1 15.2-.5.2-.9.8-.9 1.3s-1.1 2.7-2.5 5c-2.6 4.1-2.6 5.9.2 5.9 2.7 0 23.4-22.1 28.8-30.7l5-8 5.4-.2c8-.3 20.6 1.7 29.4 4.6 9.2 3.1 10.8 4.4 10.1 8.1-.4 2.2.4 3.7 4.5 8.2 2.7 3 4.8 5.7 4.5 5.9-.5.5-19.5-1.6-30.7-3.5-12.9-2.2-19.4-2.2-21.5-.1-2.5 2.5-2.5 22.6 0 27.8 3.9 8 9.5 11.7 19.4 12.6 6.3.6 6.5.7 5.9 3.1-1 3.9-15.9 27.2-21.7 33.7-6.9 7.9-15.5 15-21.5 17.8-4.5 2-6.2 2.2-24.3 2.1-32.6-.1-55.3-5.3-70.7-16.1-9-6.3-12.7-11.9-20.6-31.4-1.9-4.6-3.8-9.3-4.2-10.4-.5-1.1-1.6-4.3-2.5-7l-1.6-5-4.5.2-4.6.2-1.7-5.7c-1-3.1-3.1-9-4.7-13-1.6-4.1-2.9-7.9-2.9-8.5 0-.7 1.6-3 3.5-5.1l3.4-4 1 2.6c.5 1.4 1.5 4.4 2.1 6.7 1.3 5.1 5.4 10.1 6.9 8.5.8-.7.7-2.3-.4-5.5-1.8-5-2-8.9-1-17.5.7-6.4.7-6.4 12.5-19.1l6-6.6 19.3.6c13.9.4 23.4 1.3 34.2 3.1 8.3 1.4 15.6 2.6 16.3 2.6 1.7 0 1.5-4.2-.4-8.9-1.4-3.5-2.1-4.1-6.2-5-12.8-3-34.7-4-47.2-2.2-3 .5-5.6.7-5.8.6-.3-.3 10.1-10.4 14.8-14.5 1.4-1.2 3.4-2.9 4.6-3.9 6.9-5.9 25.1-19.1 32.7-23.5 6.8-4 18-9.6 19.4-9.6.7 0 5.3 2.7 10.2 5.9zm56.1 5.3c0 .6.6 2.4 1.4 4.1 3.8 8.8 4.1 10.4 4 22.7-.1 12.7-1.3 19.1-5.2 26.9-1.5 3.1-2.5 3.6-9.7 5.6-4.4 1.2-8.8 2.5-9.7 3-2.4 1-2.3.8 1.6-7.7 1.8-4 4.1-9.1 5-11.3 2.7-6.5 7.3-26.3 8.6-36.8 1-8.1 1.5-9.5 2.6-8.6.8.6 1.4 1.6 1.4 2.1zm25 34.7c0 4.2-.4 8.1-1 8.7-.5.5-1.2 5.3-1.6 10.7-.4 5.3-1 9.7-1.4 9.7-.4 0-1.3-.7-2.1-1.6-.7-.8-3.1-2.5-5.3-3.6-2.3-1.1-4.3-2.2-4.5-2.4-.2-.2.8-2.1 2.2-4.2 3.4-5.2 9-16.7 10.7-21.9.7-2.3 1.7-4 2.1-3.7.5.3.9 4 .9 8.3zm-39 58.3c0 .2-.7 2.5-1.5 5.2-2 6.5-1.9 14 .1 16 5.1 5.2 13.4-2.2 16.8-14.9l1.1-4.1 12.5 2c6.9 1.1 12.7 2.1 12.9 2.2.2.2-.4 2.5-1.4 5-2.3 6-12.7 16.7-18 18.4-5.5 1.8-15.7.8-19.8-2-5.1-3.5-6.9-6.6-7.4-13-.8-8.7.4-15 2.8-15 1 0 1.9.1 1.9.2zm-82.1 96.5c3.9.7 4.6 1.2 5.7 4.3.7 1.9 1.3 5.2 1.3 7.2.1 3.7.2 3.8 8.4 7.7 13.1 6.3 12.8 5.7 6.7 12.4-2.9 3.2-7.3 7-9.9 8.5-8.7 5.1-26.4 3.1-32.4-3.6-.9-1.1-1.6-4.4-1.9-9l-.4-7.2 4.3-1.6c2.4-1 4.6-2 4.8-2.4.2-.4-.2-4.6-1.1-9.4-.8-4.8-1.2-9.1-.9-9.6.3-.5 2.8-.3 5.8.5 2.8.8 7.2 1.7 9.6 2.2zm24.7 39c-.2 1.6-.5 4.4-.5 6.4-.1 3.4-.4 3.8-5.8 6.2-12.2 5.4-25 5.5-35.3.3-4.3-2.1-4.5-2.5-4.8-6.9l-.3-4.7 4.6 2.4c2.5 1.4 7 3 10.1 3.7 9.6 2.1 23-1.6 28.8-8 2.6-2.9 3.8-2.6 3.2.6zm-84.8 58.5c5.9 3.9 12.4 8.2 14.5 9.6 4 2.7 5.3 4.8 20.5 34.3 5 9.7 9.9 19.1 10.9 20.8 2.2 3.9 3.2 3.2-16.1 10.9-9.6 3.9-18.3 6.6-23.8 7.6-9.6 1.6-13.5 3.9-25.3 14.9l-6 5.6-4.2-8.2-4.2-8.2 5.7-5c3.1-2.8 7.2-6.4 9-8.2 2.9-2.8 4.1-3.2 11-3.8 7.9-.8 13.1-2.3 8.2-2.5-1.4-.1-6.1-.5-10.5-.9l-8-.7-7.5 6.6c-4.1 3.6-9.8 8.4-12.6 10.7l-5.1 4.2-1.8-4.2c-1-2.3-2.4-5.7-3.2-7.6-.8-1.8-1.1-3.6-.6-4.1.4-.4 7.3-5.3 15.2-11l14.4-10.2 8.1.6c4.4.4 10 .9 12.4 1.2 2.3.4 4.2.2 4.2-.3s-6.1-2.1-13.6-3.6c-15.5-3-14-3.3-25.4 5.2-4.1 3.1-8.4 6.3-9.6 7.1-1.2.8-3.6 2.5-5.3 3.8l-3 2.3-3.6-7.7c-1.9-4.2-3.5-8-3.5-8.5 0-.4 2.1-1.5 4.8-2.5 2.6-1 5.8-2.5 7.2-3.4 1.4-.9 5.7-3.4 9.5-5.5 3.9-2.1 8.3-4.7 9.9-5.8l2.8-2 13.6 2.2c7.5 1.1 13.9 1.8 14.3 1.4.4-.5 1-2.7 1.4-4.9l.6-4.2-11.8-7.3c-6.5-4-12.5-7.9-13.4-8.6-2-1.6-3-.7-2.3 2.2.5 2-.6 2.4-15.3 6.8-8.7 2.6-16.4 4.7-17 4.7-1.7 0-.6-14.9 1.2-16.8.7-.8 4.1-2.2 7.6-3.2 13.1-3.7 26-8 28.7-9.4 1.5-.7 3.5-1.4 4.5-1.5 1-.1 6.7 3.1 12.5 7.1zm76.6 3.8h5.9l-.6 19.1c-.3 10.5-1 19.6-1.5 20.1-1 1-39.5-.6-41.3-1.7-.5-.4-.9-2.2-.9-4.1V482h17.9c16.1 0 18-.2 18.6-1.8.3-.9.9-6.3 1.2-12l.6-10.2h-5.1c-5.6 0-5.7.1-6.7 4.7-.6 2.9-.4 3.3 1.5 3.3 2.5 0 3.5 2.2 2.2 4.7-.8 1.5-1.9 1.8-5.7 1.5l-4.6-.4.7-9.7c.4-5.3.9-10 1.2-10.5.2-.5 2.8-.6 5.6-.2 2.8.3 7.8.6 11 .6zm93.6 10c2.4 3.8 3 5.8 3 10.2v5.5l-4.7.7c-5.7.8-7.2-.4-5.3-3.9.7-1.4 1.1-2.7.8-3-.5-.5-22.7 5.3-23.7 6.1-.2.2.7 2.7 2 5.4 2.1 4.5 2.7 5.1 4.9 4.7 2.6-.5 14.1-3.2 19.8-4.7 3.2-.8 3.3-.8 6.3 5.2 1.7 3.3 2.8 6.5 2.6 7.2-.3.6-5.3 2.4-11.1 4-5.9 1.6-10.9 3.3-11.2 3.8-.8 1.2 4.3.9 12-.7 3.8-.8 7.3-1.2 7.8-.9 1.4.9 6 10.5 5.5 11.8-.3.6-4.9 2.7-10.3 4.6-10 3.6-10.2 5.2-.3 3.1 6.4-1.4 7.9-1.4 7.9.1 0 .7 1.4 4 3 7.3 1.6 3.2 2.6 6.3 2.4 6.7-.3.4-2.9.8-5.7.8-8.1 0-10.7 1.1-27.8 12.7-22 14.8-19.6 13.9-28.2 11.1l-7.2-2.3-.3-7c-.6-15.4-4-25.1-12.4-35.6-2.6-3.2-4.8-6.2-4.8-6.5 0-.3 5.6-8.7 12.4-18.7 6.8-10 13.1-19.9 14.1-21.9.9-2 2.2-4.1 2.8-4.6 1.1-.8 16.4-4.4 32.2-7.5 8.1-1.7 8.5-1.5 13.5 6.3z"/><path d="M339.6 231.9c-.3.4.1 4 .8 8 .8 3.9 1.1 7.2.7 7.2-.8.2 1.1.4-28.1-3-14.6-1.7-29.6-3.2-33.5-3.4-6.6-.2-7-.1-7.3 2-.2 1.3.1 2.3.7 2.3s1.1 1.3 1.1 2.9c0 4.3 6.8 17 11.7 21.7 2.6 2.5 6.7 5.2 10.1 6.4 4.9 1.9 7 2.1 15.2 1.6 7.8-.5 10.6-1.1 15.8-3.7 7.2-3.5 13.9-11.3 14.9-17.3.5-3.1.9-3.6 3-3.4 4.6.5 4.9-2.1 1.4-11.1-1.7-4.6-3.1-8.9-3.1-9.7 0-1.5-2.6-1.9-3.4-.5zm-54.3 20c.3 3.2 1.1 7.1 1.8 8.6 1.8 3.6 6 5.9 9.1 5.2 3.1-.8 6.6-7 7.5-13.2.6-4.6.6-4.7 3.7-4.1 1.7.3 8.7 1.3 15.6 2.1 6.8.9 12.6 1.8 12.9 2 1 1-5.4 11.8-8.3 13.9-7.9 5.9-23.4 7.7-31.9 3.6-7.4-3.5-13.8-11.9-16.1-21.3-.6-2.5-.4-2.7 2.2-2.7 2.8 0 2.9.2 3.5 5.9zM304.7 293.1c-5.1 4.2-5 8.7.2 5.9 1.3-.6 3.4-.3 7.2 1.2 14.1 5.4 31.4 9.6 53.4 12.8 16.4 2.4 24.5 2.6 24.5.6 0-1.8-2.2-2.6-7.3-2.6s-36.7-5.2-45.7-7.5c-6.4-1.6-26.1-7.6-26.9-8.2-.2-.2.3-1.1 1.2-2.1 1-1 1.4-2.2 1-2.5-1.4-1.4-4-.6-7.6 2.4zM364.6 292.8c-.7 1.2 6.2 7.4 10.9 9.6 1.8.9 5 1.6 7.2 1.6 4.8-.1 18.7-6.8 19.1-9.3.3-1.5-.7-1.7-10.6-1.7-6 0-14.3-.3-18.4-.6-4.8-.4-7.7-.3-8.2.4zm17.4 4.7c7.3.7 7.9 1.9.7 1.3-3.2-.3-6.3-1.1-7-1.8-.7-.7-.7-1-.1-.7.6.4 3.5.9 6.4 1.2zM288.1 474.2c-.1 5.4.4 7.8 2.5 12.1l2.6 5.4-2.5 4c-2.5 4-2.5 4.1-1.4 14.6.6 5.8 1.4 10.4 1.9 10.1.4-.3.8-4.5.8-9.3 0-7.8.3-9.3 3-14.2l3-5.6-3.5-4.9c-2.4-3.5-3.9-7.2-4.9-12l-1.4-6.9-.1 6.7zM400 473.9c0 2.6 5.5 15.8 7.2 17.3 1.1 1 3.5 1.8 5.2 1.8 4.9 0 5.5 1.2 3.7 7.9l-1.5 5.9 5.3 10.4c2.9 5.7 5.7 10.7 6.2 11.2 2 2.2.7-2.6-3-11l-4-8.9 1.2-7.9c1.3-8.8.8-9.7-6.4-11.6-4.2-1.2-5.6-2.6-9.9-10.3-3.1-5.6-4-6.6-4-4.8z"/></svg>